<svg xmlns="http://www.w3.org/2000/svg" xmlns:xlink="http://www.w3.org/1999/xlink" width="221" height="36" viewBox="0 0 221 36">
    <defs>
        <path id="prefix__a" d="M0.104 0L42.227 0 42.227 35.999 0.104 35.999z"/>
        <path id="prefix__c" d="M0 0.194L13.709 0.194 13.709 12.735 0 12.735z"/>
    </defs>
    <g fill="none" fill-rule="evenodd">
        <g transform="translate(3.25)">
            <mask id="prefix__b" fill="#fff">
                <use xlink:href="#prefix__a"/>
            </mask>
            <path fill="#FFF" d="M22.881 3.768S19.91-.24 15.11.01l2.556 3.35s-4.527-2.044-5.151-.779l2.406 1.95.005.002C5.551 7.048.104 16.636.104 23.172c0 7.918 8.65 12.827 21.061 12.827 12.414 0 21.062-4.91 21.062-12.827 0-7.55-7.735-18.563-19.346-19.404" mask="url(#prefix__b)"/>
        </g>
        <path fill="#505050" d="M19.166 14.215c0 .735-.422 1.332-.942 1.332-.519 0-.941-.597-.941-1.332 0-.734.422-1.332.94-1.332.52 0 .943.598.943 1.332M31.355 14.215c0 .735-.42 1.332-.94 1.332s-.942-.597-.942-1.332c0-.734.423-1.332.941-1.332.52 0 .941.598.941 1.332"/>
        <path fill="#ED6767" d="M29.015 18.383c1.137 1.519 1.867 3.384 1.867 5.24 0 3.713-2.815 5.511-6.29 5.511-3.472 0-6.29-1.798-6.29-5.511 0-1.658.563-3.415 1.494-4.854l4.522-3.22 4.697 2.834z"/>
        <path fill="#505050" d="M15.388 20.756c-.14 0-.224-.005-.242-.006-.356-.025-.626-.354-.603-.732.024-.38.325-.676.684-.643.026.002 2.621.142 5.128-1.803 2.719-2.116 3.569-2.73 3.603-2.754.208-.15.476-.159.692-.022 0 0 .535.342 3.205 2.124 2.53 1.69 5.707 2.463 5.738 2.471.347.082.567.45.489.822-.078.371-.421.607-.77.522-.139-.033-3.418-.828-6.14-2.646-1.595-1.064-2.424-1.612-2.83-1.879-.462.346-1.445 1.088-3.23 2.474-2.456 1.91-4.947 2.072-5.724 2.072"/>
        <path fill="#505050" d="M24.593 29.823c-4.212 0-6.935-2.431-6.935-6.198 0-1.756.587-3.67 1.609-5.247.203-.315.603-.39.895-.176.294.217.367.646.164.959-.876 1.355-1.378 2.981-1.378 4.464 0 3.554 2.915 4.82 5.645 4.82 2.73 0 5.646-1.266 5.646-4.82 0-1.617-.613-3.325-1.728-4.811-.222-.296-.177-.73.101-.967.278-.24.684-.192.905.106 1.297 1.728 2.01 3.742 2.01 5.672 0 3.767-2.722 6.198-6.934 6.198"/>
        <path fill="#505050" d="M24.319 24.762c-.356 0-.644-.307-.644-.689v-8.685c0-.38.288-.688.644-.688.357 0 .645.308.645.688v8.685c0 .382-.288.69-.645.69"/>
        <path fill="#C96" d="M34.894 6.876s.544 2.165 2.56 4.401c2.534 2.815 5.224 3.095 5.224 3.095s-.746-5.13 1.423-7.503c2.511-2.656 4.503-.754 4.503-.754-.2-3.155-4.132-5.513-8.25-3.59-5.635 2.63-5.46 4.35-5.46 4.35"/>
        <g transform="translate(0 1.636)">
            <mask id="prefix__d" fill="#fff">
                <use xlink:href="#prefix__c"/>
            </mask>
            <path fill="#C96" d="M13.709 5.24s-.545 2.164-2.56 4.401c-2.533 2.815-5.224 3.094-5.224 3.094s.748-5.13-1.423-7.502C1.99 2.577-.001 4.478-.001 4.478.2 1.323 4.13-1.035 8.25.888c5.636 2.63 5.459 4.351 5.459 4.351" mask="url(#prefix__d)"/>
        </g>
        <path fill="#FFF" d="M73.826 15.652c0-2.294-1.368-3.636-4.103-3.636h-3.67v7.236h3.67c2.735 0 4.103-1.34 4.103-3.6m6.672 0c0 5.614-4.002 9.108-10.374 9.108h-4.07v6.46h-6.608V6.51h10.678c6.372 0 10.374 3.495 10.374 9.142M102.12 18.866c0-4.271-2.768-7.06-6.306-7.06-3.536 0-6.305 2.789-6.305 7.06 0 4.269 2.769 7.059 6.305 7.059 3.538 0 6.307-2.79 6.307-7.06m-19.284 0c0-7.412 5.505-12.85 12.977-12.85 7.475 0 12.977 5.438 12.977 12.85 0 7.413-5.502 12.85-12.977 12.85-7.472 0-12.977-5.437-12.977-12.85M122.54 12.016h-3.67v7.236h3.67c2.737 0 4.102-1.34 4.102-3.6 0-2.295-1.365-3.636-4.101-3.636zm-.067 12.638h-3.603v6.565h-6.606V6.51h10.677c6.371 0 10.375 3.495 10.375 9.142 0 3.636-1.669 6.318-4.57 7.801l5.038 7.766h-7.073l-4.238-6.565zM155.036 18.866c0-4.271-2.769-7.06-6.305-7.06-3.537 0-6.306 2.789-6.306 7.06 0 4.269 2.769 7.059 6.306 7.059 3.536 0 6.305-2.79 6.305-7.06m-19.282 0c0-7.412 5.504-12.85 12.977-12.85 7.474 0 12.977 5.438 12.977 12.85 0 7.413-5.503 12.85-12.977 12.85-7.473 0-12.977-5.437-12.977-12.85M163.08 27.548c0-2.4 1.668-3.954 3.803-3.954 2.17 0 3.804 1.553 3.804 3.954 0 2.332-1.635 3.99-3.804 3.99-2.135 0-3.803-1.658-3.803-3.99M185.433 11.806c2.236 0 4.071.882 5.672 2.752l4.204-4.024c-2.303-2.929-5.839-4.518-10.209-4.518-7.574 0-13.013 5.331-13.013 12.849 0 7.519 5.44 12.849 12.88 12.849 3.403 0 7.106-1.094 9.809-3.142V18.104h-10.023v4.817h4.184v2.191c-1.168.567-2.335.814-3.57.814-3.938 0-6.606-2.897-6.606-7.061 0-4.271 2.668-7.06 6.672-7.06M220.466 18.103h-10.005v4.818h4.167v2.191c-1.169.566-2.336.813-3.57.813-3.938 0-6.606-2.894-6.606-7.059 0-4.273 2.668-7.06 6.672-7.06 2.236 0 4.07.881 5.671 2.751L221 10.534c-2.3-2.93-5.838-4.518-10.208-4.518-7.573 0-13.011 5.33-13.011 12.85s5.438 12.847 12.878 12.847c3.404 0 7.106-1.093 9.808-3.142V18.103z"/>
    </g>
</svg>
